<?xml version="1.0" encoding="UTF-8"?>
<svg width="12px" height="12px" viewBox="0 0 12 12" version="1.1" xmlns="http://www.w3.org/2000/svg" xmlns:xlink="http://www.w3.org/1999/xlink">
    <!-- Generator: Sketch 49.3 (51167) - http://www.bohemiancoding.com/sketch -->
    <title>Molocule / Icon</title>
    <desc>Created with Sketch.</desc>
    <defs>
        <path d="M16,10 C19.3,10 22,12.7 22,16 C22,19.3 19.3,22 16,22 C12.7,22 10,19.3 10,16 C10,12.7 12.7,10 16,10 Z M15.368,16.804 L16.718,16.804 C16.6999999,16.6419992 16.7194997,16.4950007 16.7765,16.363 C16.8335003,16.2309993 16.9069995,16.1080006 16.997,15.994 C17.0870004,15.8799994 17.1874994,15.7690005 17.2985,15.661 C17.4095006,15.5529995 17.5114995,15.4390006 17.6045,15.319 C17.6975005,15.1989994 17.7769997,15.0685007 17.843,14.9275 C17.9090003,14.7864993 17.942,14.6260009 17.942,14.446 C17.942,14.1639986 17.8955005,13.922501 17.8025,13.7215 C17.7094995,13.520499 17.5820008,13.3570006 17.42,13.231 C17.2579992,13.1049994 17.0690011,13.0120003 16.853,12.952 C16.6369989,12.8919997 16.4060012,12.862 16.16,12.862 C15.7999982,12.862 15.4685015,12.9399992 15.1655,13.096 C14.8624985,13.2520008 14.6000011,13.4559987 14.378,13.708 L15.224,14.482 C15.3440006,14.3739995 15.4579995,14.2840004 15.566,14.212 C15.6740005,14.1399996 15.8059992,14.104 15.962,14.104 C16.1000007,14.104 16.2184995,14.1384997 16.3175,14.2075 C16.4165005,14.2765003 16.466,14.3919992 16.466,14.554 C16.466,14.6500005 16.4345003,14.7444995 16.3715,14.8375 C16.3084997,14.9305005 16.2320004,15.0279995 16.142,15.13 C16.0519995,15.2320005 15.9545005,15.3399994 15.8495,15.454 C15.7444995,15.5680006 15.6515004,15.6924993 15.5705,15.8275 C15.4894996,15.9625007 15.4280002,16.1109992 15.386,16.273 C15.3439998,16.4350008 15.3379998,16.611999 15.368,16.804 Z M16.034,19.108 C16.2980013,19.108 16.5139992,19.0180009 16.682,18.838 C16.8500008,18.6579991 16.934,18.4360013 16.934,18.172 C16.934,17.9079987 16.8500008,17.6860009 16.682,17.506 C16.5139992,17.3259991 16.2980013,17.236 16.034,17.236 C15.7699987,17.236 15.5540008,17.3259991 15.386,17.506 C15.2179992,17.6860009 15.134,17.9079987 15.134,18.172 C15.134,18.4360013 15.2179992,18.6579991 15.386,18.838 C15.5540008,19.0180009 15.7699987,19.108 16.034,19.108 Z" id="path-1"></path>
    </defs>
    <g id="Page-1" stroke="none" stroke-width="1" fill="none" fill-rule="evenodd">
        <g id="Molocules-/-Icon" transform="translate(-10.000000, -10.000000)">
            <g id="Atoms-/-Icon-/-Question-/-Tiny">
                <mask id="mask-2" fill="white">
                    <use xlink:href="#path-1"></use>
                </mask>
                <use id="Mask" fill-opacity="0" fill="#000000" fill-rule="nonzero" xlink:href="#path-1"></use>
                <g id="Atoms-/-Color-/-Gray-/-Light" mask="url(#mask-2)" fill="#CED3DC" fill-rule="evenodd">
                    <rect id="Rectangle" x="0" y="0" width="32" height="32"></rect>
                </g>
            </g>
        </g>
    </g>
</svg>